<?xml version="1.0" encoding="utf-8"?>
<!-- Generator: Adobe Illustrator 24.3.0, SVG Export Plug-In . SVG Version: 6.00 Build 0)  -->
<svg version="1.1" id="Layer_1" xmlns="http://www.w3.org/2000/svg" xmlns:xlink="http://www.w3.org/1999/xlink" x="0px" y="0px"
	 viewBox="0 0 687.3 181.3" style="enable-background:new 0 0 687.3 181.3;" xml:space="preserve">
<style type="text/css">
	.st0{fill:#010101;}
</style>
<g>
	<path class="st0" d="M114.2,37.3c-3.5-6.5-6.1-13.5-7.5-20.8c-0.3-1.5-2.4-1.5-2.6,0c-1.5,7.3-4,14.3-7.5,20.8
		c-0.5,0.9,0.1,2,1.2,2H113C114,39.3,114.7,38.2,114.2,37.3"/>
	<path class="st0" d="M196.8,34c-20.3,5.6-38.6,16.4-53.1,31.2c-0.6,0.6-0.4,1.7,0.3,2.1c1,0.5,2.1,1,3.1,1.5c0.7,0.3,1,1.2,0.6,1.8
		c-11.2,18.6-17.2,40-17.1,61.9c0,0.9-0.9,1.5-1.7,1.2c-4-1.5-8.3-2.6-12.6-3.3c-0.6-0.1-1.1-0.6-1.1-1.2
		c-1.3-24.3,5.1-48.1,17.5-68.2c0.3-0.5,0.2-1.3-0.3-1.7c-4.5-3.7-8.6-8-12.1-12.6c-0.2-0.3-0.6-0.5-1-0.5h-28c-0.4,0-0.8,0.2-1,0.5
		c-3.5,4.6-7.6,8.9-12.1,12.6c-0.5,0.4-0.6,1.1-0.3,1.7c12.4,20.1,18.8,43.8,17.5,68.2c0,0.6-0.5,1.1-1.1,1.2
		c-4.3,0.7-8.5,1.8-12.6,3.3c-0.9,0.3-1.7-0.3-1.7-1.2c0.1-21.9-5.9-43.4-17.1-61.9c-0.4-0.7-0.1-1.5,0.6-1.8c1.1-0.5,2.1-1,3.1-1.5
		c0.8-0.4,0.9-1.5,0.3-2.1C52.4,50.5,34.2,39.6,13.9,34c-1.4-0.4-2.2,1.5-1.1,2.3c34.5,25.3,52.5,67.5,47.5,109.5
		c-0.7,6.1-1.9,12.2-3.7,18.3c-0.4,1.2,1.1,2.2,2.1,1.3c12.6-10.8,28.8-17.4,46.6-17.7c17.8,0.4,34,7,46.6,17.7
		c1,0.8,2.4-0.1,2.1-1.3c-1.7-6.1-2.9-12.2-3.7-18.3c-5-42,13-84.2,47.5-109.5C199,35.5,198.1,33.7,196.8,34"/>
	<path class="st0" d="M245.3,63.5l27.7,77.4c0,0,0,0,0,0h-16.6c0,0,0,0,0,0l-5.7-17.4c0,0,0,0,0,0h-28c0,0,0,0,0,0l-5.7,17.4
		c0,0,0,0,0,0h-16.6c0,0,0,0,0,0l27.7-77.4c0,0,0,0,0,0L245.3,63.5L245.3,63.5z M236.6,80.3l-9.9,30.4c0,0,0,0,0,0h19.9c0,0,0,0,0,0
		L236.6,80.3C236.6,80.3,236.6,80.3,236.6,80.3"/>
	<path class="st0" d="M292,121.1c0,5.5,2.4,8,8.7,8c1.7,0,3.9-0.1,5.4-0.3c0,0,0,0,0,0v11c0,0,0,0,0,0c-2.5,1.5-6.2,2.4-10.1,2.4
		c-12.4,0-19.2-6.8-19.2-20.2V96.9c0,0,0,0,0,0h-10c0,0,0,0,0,0V83.7c0,0,0,0,0,0h10c0,0,0,0,0,0V70.1c0,0,0,0,0,0l15.2-3
		c0,0,0,0,0,0v16.6c0,0,0,0,0,0h13.5c0,0,0,0,0,0v13.2c0,0,0,0,0,0H292c0,0,0,0,0,0L292,121.1L292,121.1z"/>
	<path class="st0" d="M311.1,63.2h15.2c0,0,0,0,0,0v77.7c0,0,0,0,0,0h-15.2c0,0,0,0,0,0L311.1,63.2
		C311.1,63.3,311.1,63.2,311.1,63.2"/>
	<path class="st0" d="M359.7,82.3c8,0,14.5,3.1,19.1,8.2c0,0,0,0,0,0v-6.8c0,0,0,0,0,0h15c0,0,0,0,0,0v57.3c0,0,0,0,0,0h-15
		c0,0,0,0,0,0v-6.8c0,0,0,0,0,0c-4.6,5.1-11.1,8.2-19.1,8.2c-16,0-27.6-13.2-27.6-30C332.1,95.5,343.7,82.3,359.7,82.3 M363,128.8
		c8.8,0,15.8-7.2,15.8-16.5c0-9.3-7-16.5-15.8-16.5c-8.8,0-15.6,7.2-15.6,16.5C347.3,121.6,354.2,128.8,363,128.8"/>
	<path class="st0" d="M457.2,105.5v35.4c0,0,0,0,0,0h-15.2c0,0,0,0,0,0v-33.8c0-6.4-5-11.3-10.8-11.3c-7,0-13,5.4-13,14v31.2
		c0,0,0,0,0,0H403c0,0,0,0,0,0V83.7c0,0,0,0,0,0h15.2c0,0,0,0,0,0V90c0,0,0,0,0,0c4-4.8,9.7-7.7,16.3-7.7
		C448,82.3,457.2,91.6,457.2,105.5"/>
	<path class="st0" d="M483.3,121.1c0,5.5,2.4,8,8.7,8c1.7,0,3.9-0.1,5.4-0.3c0,0,0,0,0,0v11c0,0,0,0,0,0c-2.5,1.5-6.2,2.4-10.1,2.4
		c-12.4,0-19.2-6.8-19.2-20.2V96.9c0,0,0,0,0,0h-10c0,0,0,0,0,0V83.7c0,0,0,0,0,0h10c0,0,0,0,0,0V70.1c0,0,0,0,0,0l15.2-3
		c0,0,0,0,0,0v16.6c0,0,0,0,0,0h13.5c0,0,0,0,0,0v13.2c0,0,0,0,0,0h-13.5c0,0,0,0,0,0L483.3,121.1L483.3,121.1z"/>
	<path class="st0" d="M528.8,123.3C528.8,123.3,528.8,123.3,528.8,123.3c4.5,4.4,8.9,6.8,14.6,6.8c5.3,0,8.4-2.2,8.4-5.7
		c0-3.4-2.4-5.5-9.8-7c-12.4-2.5-18.6-8.8-18.6-18.4c0-9.6,8.2-16.7,20.7-16.7c12.9,0,20.5,7.1,22.3,18.1c0,0,0,0,0,0H552
		c0,0,0,0,0,0c-0.8-3.7-3.3-5.9-7.2-5.9c-3.6,0-6.6,1.8-6.6,4.8c0,3,2.7,5.5,9.1,6.9c13.3,2.7,19.4,8.8,19.4,18.5
		c0,10.1-8.5,17.7-22.7,17.7c-8.6,0-15.5-4.1-21.4-11.9v0L528.8,123.3z"/>
	<path class="st0" d="M602.6,130.1c7.8,0,13.5-2.6,18.8-7.7c0,0,0,0,0,0l7.6,7.6c0,0,0,0,0,0c-6.2,7.1-14.5,12.2-26.4,12.2
		c-19.6,0-32.6-13.2-32.6-30s13.4-30,31.1-30c17.5,0,30,13,30,29c0,1.8-0.3,4-0.7,5.5c0,0,0,0,0,0h-45.1c0,0,0,0,0,0
		C586.8,124.8,593.5,130.1,602.6,130.1 M585.9,106h31.4c0,0,0,0,0,0c-1.8-6.8-7.5-11.5-15.3-11.5C594.4,94.4,588.1,99,585.9,106
		C585.9,106,585.9,106,585.9,106"/>
	<path class="st0" d="M670.9,82.8C670.9,82.8,670.9,82.8,670.9,82.8c-1.1-0.3-2.2-0.5-3.4-0.5c-6.6,0-11.6,3.5-15.3,8.3c0,0,0,0,0,0
		v-7c0,0,0,0,0,0h-15.2c0,0,0,0,0,0v57.3c0,0,0,0,0,0h15.2c0,0,0,0,0,0v-30.3c0-8.9,6.1-14.8,13.4-14.8c1.7,0,3.6,0.3,5.3,0.9
		c0,0,0,0,0,0V82.8z"/>
	<path class="st0" d="M502.4,140.9h15.2c0,0,0,0,0,0V83.7c0,0,0,0,0,0h-15.2c0,0,0,0,0,0L502.4,140.9
		C502.4,140.9,502.4,140.9,502.4,140.9"/>
	<path class="st0" d="M502.4,63.3v13.6c0,0,0,0,0,0h15.2c0,0,0,0,0,0V63.3c0,0,0,0,0,0L502.4,63.3C502.4,63.2,502.4,63.3,502.4,63.3
		"/>
	<path d="M657.5,133.7c0-4.9,3.9-8.8,8.8-8.8c5,0,8.8,3.9,8.8,8.7c0,4.9-3.9,8.7-8.8,8.7C661.5,142.4,657.5,138.6,657.5,133.7
		 M673.5,133.7c0-4.3-3-7.3-7.2-7.3s-7.2,3-7.2,7.3c0,4.3,3.2,7.3,7.2,7.3C670.4,141,673.5,138,673.5,133.7 M663.3,129.2h3
		c2,0,3.3,0.8,3.3,2.6v0c0,1.3-0.8,2-1.8,2.3l2.3,3.7h-2l-2.1-3.4h-0.9v3.4h-1.9V129.2z M666.3,133.2c1,0,1.5-0.4,1.5-1.3v0
		c0-0.9-0.6-1.2-1.5-1.2h-1.1v2.5H666.3z"/>
</g>
</svg>
